<svg width="350" height="180" viewBox="0 0 350 180" fill="none" xmlns="http://www.w3.org/2000/svg">
  <!-- DOZO text -->
  <text x="20" y="110" font-family="Arial, sans-serif" font-size="72" font-weight="300" fill="#C8996F" letter-spacing="4">DOZO</text>
  
  <!-- Circular dots pattern -->
  <g transform="translate(265, 90)">
    <!-- Outer ring - larger dots -->
    <circle cx="0" cy="-45" r="4" fill="#C8996F" opacity="0.9"/>
    <circle cx="15" cy="-43" r="4" fill="#C8996F" opacity="0.85"/>
    <circle cx="30" cy="-37" r="4" fill="#C8996F" opacity="0.8"/>
    <circle cx="40" cy="-27" r="4" fill="#C8996F" opacity="0.75"/>
    <circle cx="45" cy="-13" r="4" fill="#C8996F" opacity="0.7"/>
    <circle cx="45" cy="3" r="4" fill="#C8996F" opacity="0.75"/>
    <circle cx="40" cy="17" r="4" fill="#C8996F" opacity="0.8"/>
    <circle cx="30" cy="27" r="4" fill="#C8996F" opacity="0.85"/>
    <circle cx="15" cy="33" r="4" fill="#C8996F" opacity="0.9"/>
    <circle cx="0" cy="35" r="4" fill="#C8996F" opacity="0.9"/>
    <circle cx="-15" cy="33" r="4" fill="#C8996F" opacity="0.85"/>
    <circle cx="-30" cy="27" r="4" fill="#C8996F" opacity="0.8"/>
    <circle cx="-40" cy="17" r="4" fill="#C8996F" opacity="0.75"/>
    <circle cx="-45" cy="3" r="4" fill="#C8996F" opacity="0.7"/>
    <circle cx="-45" cy="-13" r="4" fill="#C8996F" opacity="0.75"/>
    <circle cx="-40" cy="-27" r="4" fill="#C8996F" opacity="0.8"/>
    <circle cx="-30" cy="-37" r="4" fill="#C8996F" opacity="0.85"/>
    <circle cx="-15" cy="-43" r="4" fill="#C8996F" opacity="0.9"/>
    
    <!-- Middle ring - medium dots -->
    <circle cx="0" cy="-30" r="3.5" fill="#C8996F" opacity="0.7"/>
    <circle cx="20" cy="-22" r="3.5" fill="#C8996F" opacity="0.65"/>
    <circle cx="30" cy="-5" r="3.5" fill="#C8996F" opacity="0.6"/>
    <circle cx="30" cy="12" r="3.5" fill="#C8996F" opacity="0.65"/>
    <circle cx="20" cy="25" r="3.5" fill="#C8996F" opacity="0.7"/>
    <circle cx="0" cy="28" r="3.5" fill="#C8996F" opacity="0.7"/>
    <circle cx="-20" cy="25" r="3.5" fill="#C8996F" opacity="0.65"/>
    <circle cx="-30" cy="12" r="3.5" fill="#C8996F" opacity="0.6"/>
    <circle cx="-30" cy="-5" r="3.5" fill="#C8996F" opacity="0.65"/>
    <circle cx="-20" cy="-22" r="3.5" fill="#C8996F" opacity="0.7"/>
    
    <!-- Inner ring - smaller dots -->
    <circle cx="0" cy="-18" r="2.5" fill="#C8996F" opacity="0.5"/>
    <circle cx="12" cy="-12" r="2.5" fill="#C8996F" opacity="0.45"/>
    <circle cx="18" cy="0" r="2.5" fill="#C8996F" opacity="0.4"/>
    <circle cx="12" cy="12" r="2.5" fill="#C8996F" opacity="0.45"/>
    <circle cx="0" cy="18" r="2.5" fill="#C8996F" opacity="0.5"/>
    <circle cx="-12" cy="12" r="2.5" fill="#C8996F" opacity="0.45"/>
    <circle cx="-18" cy="0" r="2.5" fill="#C8996F" opacity="0.4"/>
    <circle cx="-12" cy="-12" r="2.5" fill="#C8996F" opacity="0.45"/>
  </g>
</svg>
